<svg width="31" height="30" viewBox="0 0 31 30" fill="none" xmlns="http://www.w3.org/2000/svg">
<path fill-rule="evenodd" clip-rule="evenodd" d="M1.58325 3.5475C1.58325 2.93817 1.82531 2.35379 2.25617 1.92293C2.68704 1.49206 3.27142 1.25 3.88075 1.25H26.7833C27.0852 1.24951 27.3843 1.30858 27.6634 1.42384C27.9425 1.53909 28.1962 1.70827 28.4098 1.92167C28.6235 2.13508 28.7929 2.38853 28.9085 2.66752C29.024 2.9465 29.0834 3.24553 29.0833 3.5475V26.45C29.0836 26.752 29.0244 27.0512 28.909 27.3303C28.7936 27.6094 28.6243 27.863 28.4108 28.0766C28.1973 28.2903 27.9437 28.4597 27.6647 28.5752C27.3856 28.6908 27.0865 28.7502 26.7845 28.75H3.88075C3.57894 28.75 3.28008 28.6905 3.00125 28.575C2.72242 28.4595 2.46909 28.2901 2.25573 28.0766C2.04237 27.8632 1.87317 27.6097 1.75778 27.3309C1.64239 27.052 1.58309 26.7531 1.58325 26.4513V3.5475ZM12.4683 11.735H16.192V13.605C16.7295 12.53 18.1045 11.5625 20.1708 11.5625C24.132 11.5625 25.0708 13.7038 25.0708 17.6325V24.91H21.062V18.5275C21.062 16.29 20.5245 15.0275 19.1595 15.0275C17.2658 15.0275 16.4783 16.3888 16.4783 18.5275V24.91H12.4683V11.735ZM5.59325 24.7388H9.60325V11.5625H5.59325V24.7375V24.7388ZM10.177 7.265C10.1846 7.60834 10.1235 7.94974 9.9973 8.26915C9.87114 8.58856 9.68244 8.87955 9.44229 9.12504C9.20214 9.37054 8.91538 9.56559 8.59882 9.69876C8.28227 9.83193 7.9423 9.90052 7.59888 9.90052C7.25545 9.90052 6.91549 9.83193 6.59893 9.69876C6.28238 9.56559 5.99561 9.37054 5.75546 9.12504C5.51531 8.87955 5.32662 8.58856 5.20045 8.26915C5.07429 7.94974 5.01319 7.60834 5.02075 7.265C5.03559 6.59107 5.31373 5.94974 5.79561 5.47836C6.27748 5.00698 6.92478 4.74303 7.59888 4.74303C8.27297 4.74303 8.92027 5.00698 9.40215 5.47836C9.88402 5.94974 10.1622 6.59107 10.177 7.265V7.265Z" fill="white"/>
</svg>
