<svg width="30" height="31" viewBox="0 0 30 31" fill="none" xmlns="http://www.w3.org/2000/svg">
<path fill-rule="evenodd" clip-rule="evenodd" d="M21.7688 18.3106C21.3963 18.1243 19.57 17.2268 19.23 17.1018C18.89 16.9781 18.6425 16.9168 18.3938 17.2893C18.1463 17.6593 17.435 18.4968 17.2187 18.7443C17.0012 18.9931 16.785 19.0231 16.4137 18.8381C16.0425 18.6506 14.845 18.2593 13.4263 16.9943C12.3225 16.0093 11.5763 14.7931 11.36 14.4206C11.1438 14.0493 11.3363 13.8481 11.5225 13.6631C11.69 13.4968 11.8937 13.2293 12.08 13.0131C12.2662 12.7956 12.3275 12.6406 12.4513 12.3918C12.5763 12.1443 12.5137 11.9281 12.42 11.7418C12.3275 11.5556 11.585 9.72681 11.275 8.98306C10.9738 8.25931 10.6675 8.35806 10.44 8.34556C10.2225 8.33556 9.975 8.33306 9.7275 8.33306C9.48 8.33306 9.0775 8.42556 8.7375 8.79806C8.39625 9.16931 7.4375 10.0681 7.4375 11.8968C7.4375 13.7243 8.7675 15.4906 8.95375 15.7393C9.14 15.9868 11.5725 19.7393 15.2988 21.3481C16.1863 21.7306 16.8775 21.9593 17.4162 22.1293C18.3062 22.4131 19.1163 22.3731 19.7563 22.2768C20.4688 22.1706 21.9538 21.3781 22.2638 20.5106C22.5725 19.6431 22.5725 18.8993 22.48 18.7443C22.3875 18.5893 22.14 18.4968 21.7675 18.3106H21.7688ZM14.9913 27.5643H14.9863C12.773 27.5647 10.6005 26.9698 8.69625 25.8418L8.24625 25.5743L3.56875 26.8018L4.8175 22.2418L4.52375 21.7743C3.28642 19.8047 2.63162 17.5253 2.635 15.1993C2.6375 8.38681 8.18 2.84431 14.9962 2.84431C18.2962 2.84431 21.3988 4.13181 23.7313 6.46681C24.8817 7.61253 25.7936 8.97502 26.4141 10.4754C27.0346 11.9758 27.3514 13.5844 27.3463 15.2081C27.3438 22.0206 21.8012 27.5643 14.9913 27.5643V27.5643ZM25.5063 4.69306C24.129 3.30671 22.4903 2.20748 20.6851 1.45906C18.8799 0.710639 16.9442 0.327913 14.99 0.333059C6.7975 0.333059 0.1275 7.00181 0.125 15.1981C0.121204 17.8065 0.805468 20.3698 2.10875 22.6293L0 30.3331L7.88 28.2656C10.0598 29.4532 12.5026 30.0755 14.985 30.0756H14.9913C23.1837 30.0756 29.8538 23.4068 29.8563 15.2093C29.8623 13.2559 29.481 11.3207 28.7343 9.5156C27.9876 7.71052 26.8905 6.0714 25.5063 4.69306" fill="white"/>
</svg>
