<svg width="39" height="31" viewBox="0 0 39 31" fill="none" xmlns="http://www.w3.org/2000/svg">
<path d="M36.8182 0.5H1.36364C0.609375 0.5 0 1.10937 0 1.86364V29.1364C0 29.8906 0.609375 30.5 1.36364 30.5H36.8182C37.5724 30.5 38.1818 29.8906 38.1818 29.1364V1.86364C38.1818 1.10937 37.5724 0.5 36.8182 0.5ZM35.1136 5.22159V27.4318H3.06818V5.22159L1.89205 4.3054L3.56676 2.15341L5.39063 3.57244H32.7955L34.6193 2.15341L36.294 4.3054L35.1136 5.22159V5.22159ZM32.7955 3.56818L19.0909 14.2216L5.38636 3.56818L3.5625 2.14915L1.88778 4.30114L3.06392 5.21733L17.6207 16.5355C18.0394 16.8607 18.5544 17.0373 19.0845 17.0373C19.6146 17.0373 20.1297 16.8607 20.5483 16.5355L35.1136 5.22159L36.2898 4.3054L34.6151 2.15341L32.7955 3.56818Z" fill="white"/>
</svg>
